<svg width="144" height="44" viewBox="0 0 144 44" fill="none" xmlns="http://www.w3.org/2000/svg">
<path d="M58.36 13.0155C60.26 13.0155 61.85 13.1955 63.13 13.5555C64.43 13.8955 65.4 14.4655 66.04 15.2655C66.7 16.0455 67.03 17.1055 67.03 18.4455C67.03 19.2455 66.9 19.9755 66.64 20.6355C66.38 21.2955 66 21.8355 65.5 22.2555C65.02 22.6755 64.43 22.9455 63.73 23.0655V23.2155C64.45 23.3555 65.1 23.6055 65.68 23.9655C66.26 24.3255 66.72 24.8455 67.06 25.5255C67.4 26.2055 67.57 27.1055 67.57 28.2255C67.57 29.5255 67.25 30.6455 66.61 31.5855C65.99 32.5055 65.09 33.2155 63.91 33.7155C62.73 34.1955 61.33 34.4355 59.71 34.4355H51.7V13.0155H58.36ZM58.87 21.5055C60.19 21.5055 61.1 21.2955 61.6 20.8755C62.12 20.4555 62.38 19.8455 62.38 19.0455C62.38 18.2255 62.08 17.6355 61.48 17.2755C60.88 16.9155 59.93 16.7355 58.63 16.7355H56.23V21.5055H58.87ZM56.23 25.1055V30.6855H59.2C60.56 30.6855 61.51 30.4255 62.05 29.9055C62.59 29.3655 62.86 28.6555 62.86 27.7755C62.86 27.2355 62.74 26.7655 62.5 26.3655C62.28 25.9655 61.89 25.6555 61.33 25.4355C60.77 25.2155 60.01 25.1055 59.05 25.1055H56.23ZM86.3763 26.2155C86.3763 27.5755 86.1863 28.7855 85.8063 29.8455C85.4463 30.9055 84.9163 31.8055 84.2163 32.5455C83.5363 33.2655 82.7063 33.8155 81.7263 34.1955C80.7463 34.5555 79.6363 34.7355 78.3963 34.7355C77.2563 34.7355 76.1963 34.5555 75.2163 34.1955C74.2563 33.8155 73.4263 33.2655 72.7263 32.5455C72.0263 31.8055 71.4763 30.9055 71.0763 29.8455C70.6963 28.7855 70.5063 27.5755 70.5063 26.2155C70.5063 24.3955 70.8263 22.8655 71.4663 21.6255C72.1063 20.3655 73.0263 19.4055 74.2263 18.7455C75.4263 18.0855 76.8463 17.7555 78.4863 17.7555C80.0263 17.7555 81.3863 18.0855 82.5663 18.7455C83.7463 19.4055 84.6763 20.3655 85.3563 21.6255C86.0363 22.8655 86.3763 24.3955 86.3763 26.2155ZM75.0663 26.2155C75.0663 27.2955 75.1763 28.2055 75.3963 28.9455C75.6363 29.6655 76.0063 30.2155 76.5063 30.5955C77.0063 30.9555 77.6563 31.1355 78.4563 31.1355C79.2563 31.1355 79.8963 30.9555 80.3763 30.5955C80.8763 30.2155 81.2363 29.6655 81.4563 28.9455C81.6963 28.2055 81.8163 27.2955 81.8163 26.2155C81.8163 25.1355 81.6963 24.2355 81.4563 23.5155C81.2363 22.7955 80.8763 22.2555 80.3763 21.8955C79.8763 21.5355 79.2263 21.3555 78.4263 21.3555C77.2463 21.3555 76.3863 21.7655 75.8463 22.5855C75.3263 23.3855 75.0663 24.5955 75.0663 26.2155ZM99.2205 17.7555C99.4405 17.7555 99.7005 17.7655 100 17.7855C100.3 17.8055 100.54 17.8355 100.72 17.8755L100.39 22.0755C100.25 22.0355 100.04 22.0055 99.7605 21.9855C99.5005 21.9455 99.2705 21.9255 99.0705 21.9255C98.4905 21.9255 97.9305 22.0055 97.3905 22.1655C96.8505 22.3055 96.3605 22.5355 95.9205 22.8555C95.5005 23.1755 95.1605 23.6055 94.9005 24.1455C94.6605 24.6655 94.5405 25.3155 94.5405 26.0955V34.4355H90.0705V18.0555H93.4605L94.1205 20.8155H94.3305C94.6505 20.2555 95.0505 19.7455 95.5305 19.2855C96.0105 18.8255 96.5605 18.4555 97.1805 18.1755C97.8205 17.8955 98.5005 17.7555 99.2205 17.7555Z" fill="#db006d"/>
<path d="M110.352 33.4C110.736 33.4 111.08 33.376 111.384 33.328C111.688 33.264 111.968 33.192 112.224 33.112V33.904C111.968 34 111.68 34.08 111.36 34.144C111.04 34.208 110.68 34.24 110.28 34.24C109.544 34.24 108.952 34.104 108.504 33.832C108.056 33.544 107.72 33.128 107.496 32.584C107.288 32.04 107.184 31.368 107.184 30.568V22.096H105.264V21.472L107.184 21.256L107.472 18.184H108.12V21.28H112.152V22.096H108.12V30.496C108.12 31.44 108.28 32.16 108.6 32.656C108.936 33.152 109.52 33.4 110.352 33.4ZM125.403 27.64C125.403 28.6 125.291 29.48 125.067 30.28C124.843 31.08 124.491 31.776 124.011 32.368C123.547 32.96 122.963 33.424 122.259 33.76C121.571 34.08 120.755 34.24 119.811 34.24C118.915 34.24 118.123 34.08 117.435 33.76C116.747 33.44 116.163 32.984 115.683 32.392C115.219 31.8 114.867 31.104 114.627 30.304C114.387 29.504 114.267 28.616 114.267 27.64C114.267 26.28 114.491 25.112 114.939 24.136C115.387 23.144 116.035 22.384 116.883 21.856C117.747 21.312 118.763 21.04 119.931 21.04C121.195 21.04 122.227 21.328 123.027 21.904C123.843 22.48 124.443 23.264 124.827 24.256C125.211 25.248 125.403 26.376 125.403 27.64ZM115.227 27.64C115.227 28.776 115.395 29.784 115.731 30.664C116.067 31.528 116.571 32.2 117.243 32.68C117.931 33.16 118.787 33.4 119.811 33.4C120.883 33.4 121.755 33.16 122.427 32.68C123.115 32.184 123.619 31.504 123.939 30.64C124.275 29.76 124.443 28.76 124.443 27.64C124.443 26.552 124.291 25.576 123.987 24.712C123.683 23.848 123.203 23.16 122.547 22.648C121.891 22.136 121.019 21.88 119.931 21.88C118.395 21.88 117.227 22.392 116.427 23.416C115.627 24.424 115.227 25.832 115.227 27.64ZM134.452 21.04C136.116 21.04 137.388 21.592 138.268 22.696C139.164 23.8 139.612 25.416 139.612 27.544C139.612 28.968 139.396 30.184 138.964 31.192C138.548 32.184 137.94 32.944 137.14 33.472C136.356 33.984 135.396 34.24 134.26 34.24C133.476 34.24 132.788 34.112 132.196 33.856C131.604 33.6 131.116 33.264 130.732 32.848C130.364 32.432 130.084 31.968 129.892 31.456H129.844C129.876 31.936 129.892 32.432 129.892 32.944C129.892 33.44 129.892 33.92 129.892 34.384V39.616H128.98V21.28H129.748L129.844 24.064H129.892C130.084 23.536 130.372 23.048 130.756 22.6C131.156 22.136 131.66 21.76 132.268 21.472C132.892 21.184 133.62 21.04 134.452 21.04ZM134.38 21.88C133.388 21.88 132.564 22.104 131.908 22.552C131.252 23 130.756 23.648 130.42 24.496C130.084 25.328 129.908 26.344 129.892 27.544V27.688C129.892 28.984 130.06 30.056 130.396 30.904C130.748 31.736 131.236 32.36 131.86 32.776C132.5 33.192 133.284 33.4 134.212 33.4C135.156 33.4 135.956 33.176 136.612 32.728C137.268 32.28 137.772 31.624 138.124 30.76C138.476 29.88 138.652 28.808 138.652 27.544C138.652 25.656 138.292 24.24 137.572 23.296C136.868 22.352 135.804 21.88 134.38 21.88Z" fill="#db006d"/>
<path d="M41 1.74391C41 1.0926 40.4622 0.564575 39.7988 0.564575C39.1355 0.564575 38.5977 1.0926 38.5977 1.74391C38.5977 3.02254 37.4609 4.10266 36.1152 4.10266H30.6968C27.6077 2.55891 24.0892 1.74399 20.5 1.74399C16.9108 1.74399 13.3923 2.55891 10.3032 4.10266H4.89942C3.54586 4.10274 2.40234 3.02254 2.40234 1.74391C2.40234 1.0926 1.86454 0.564575 1.20117 0.564575C0.537805 0.564575 0 1.0926 0 1.74391V5.28199C0 7.46997 0.88198 9.53176 2.48386 11.0935C0.856035 13.7063 0 16.569 0 19.4341C0 29.1884 9.19625 37.1241 20.5 37.1241C31.8037 37.1241 41 29.1884 41 19.4341C41 16.5734 40.1464 13.7145 38.523 11.1048C40.0529 9.61086 41 7.55205 41 5.28207V1.74391ZM20.5001 4.10274C22.4136 4.10274 24.3025 4.36093 26.0992 4.86026C24.7576 5.38813 23.5262 6.18253 22.474 7.21712C21.6723 8.00547 21.0131 8.89594 20.5074 9.85812C20.0017 8.89594 19.3425 8.00547 18.5407 7.21712C17.487 6.18096 16.2535 5.38577 14.9094 4.8579C16.7036 4.36015 18.5895 4.10274 20.5001 4.10274ZM20.5 23.682C20.9492 24.4139 21.5108 25.072 22.1611 25.6335L20.5 28.7097L18.8389 25.6335C19.4892 25.072 20.0508 24.4139 20.5 23.682ZM13.293 25.3308C9.98134 25.3308 7.28711 22.6855 7.28711 19.4341C7.28711 16.1827 9.98134 13.5374 13.293 13.5374C16.6046 13.5374 19.2988 16.1827 19.2988 19.4341C19.2988 22.6855 16.6046 25.3308 13.293 25.3308ZM21.7012 19.4341C21.7012 19.3403 21.704 19.2471 21.7084 19.1543C21.7167 19.098 21.7225 19.0407 21.7223 18.9821V18.9596C21.9695 15.9294 24.5582 13.5374 27.707 13.5374C31.0187 13.5374 33.7129 16.1827 33.7129 19.4341C33.7129 22.6855 31.0187 25.3308 27.707 25.3308C24.3954 25.3308 21.7012 22.6855 21.7012 19.4341ZM2.42621 5.80593C3.17278 6.23332 4.0212 6.4614 4.89942 6.4614H10.5791H10.585H10.8906C13.139 6.4614 15.2521 7.32169 16.8407 8.88376C18.1513 10.1725 18.9743 11.8112 19.2204 13.5847C17.8662 12.2618 16.0568 11.3883 14.0459 11.2122C13.956 11.1911 13.8626 11.1787 13.7661 11.1787H8.50286C7.1907 11.1787 5.97455 10.7755 4.97846 10.0916C4.91423 10.0187 4.84104 9.95168 4.7568 9.89421C4.70067 9.85592 4.64205 9.82424 4.58223 9.79648C3.3801 8.81952 2.57227 7.40322 2.42621 5.80593ZM38.5977 19.4341C38.5977 27.8878 30.4791 34.7654 20.5 34.7654C10.5209 34.7654 2.40234 27.8878 2.40234 19.4341C2.40234 17.0745 3.09582 14.7032 4.41687 12.5137C5.36259 13.0225 6.39808 13.3501 7.47769 13.4773C5.88062 14.9808 4.88477 17.0953 4.88477 19.4341C4.88477 23.9861 8.65668 27.6894 13.293 27.6894C14.5513 27.6894 15.7457 27.4161 16.8185 26.9277L19.4387 31.7799C19.6471 32.1656 20.0553 32.4068 20.5 32.4068C20.9447 32.4068 21.3529 32.1656 21.5613 31.7799L24.1815 26.9277C25.2543 27.4161 26.4488 27.6894 27.707 27.6894C32.3433 27.6894 36.1152 23.9861 36.1152 19.4341C36.1152 17.096 35.1199 14.982 33.5237 13.4785C34.6228 13.3509 35.6581 13.0185 36.5878 12.5214C37.9058 14.7088 38.5977 17.0775 38.5977 19.4341ZM36.3987 9.81543C36.3475 9.84051 36.2972 9.86811 36.2489 9.90105C36.1712 9.95404 36.1028 10.0151 36.042 10.0813C35.0456 10.7713 33.8271 11.1787 32.5117 11.1787H27.2484C27.1547 11.1787 27.0639 11.1902 26.9764 11.2102C24.9648 11.381 23.1538 12.2499 21.7964 13.5685C22.0453 11.8012 22.8673 10.1685 24.1739 8.88368C25.7625 7.32161 27.8756 6.46133 30.1239 6.46133H30.3957C30.3984 6.46133 30.401 6.46156 30.4037 6.46156C30.406 6.46156 30.4083 6.46133 30.4106 6.46133H36.1152C36.9885 6.46133 37.8315 6.23544 38.5732 5.81222C38.425 7.41753 37.6096 8.83918 36.3987 9.81543Z" fill="#db006d"/>
<path d="M13.5 16.6834L14.5103 19.2744H17.7798L15.1347 20.8757L16.145 23.4667L13.5 21.8654L10.855 23.4667L11.8653 20.8757L9.22025 19.2744H12.4897L13.5 16.6834Z" fill="#db006d"/>
<path d="M27.5 16.6834L28.5103 19.2744H31.7798L29.1347 20.8757L30.145 23.4667L27.5 21.8654L24.855 23.4667L25.8653 20.8757L23.2202 19.2744H26.4897L27.5 16.6834Z" fill="#db006d"/>
</svg>
